<svg viewBox="0 0 100 100" xmlns="http://www.w3.org/2000/svg" id="Blueprint-2--Streamline-Ux">
  <desc>
    Blueprint 2 Streamline Illustration: https://streamlinehq.com
  </desc>
  <path d="M74.923 65.865v14.944a1.318 1.318 0 0 1 -1.323 1.322H20.706a1.327 1.327 0 0 1 -1.322 -1.322v-9.854" fill="none" stroke="#020064" stroke-linecap="round" stroke-linejoin="round" stroke-width="1"></path>
  <path d="m19.384 67.5 0 -0.013" fill="none" stroke="#020064" stroke-linecap="round" stroke-linejoin="round" stroke-width="1"></path>
  <path d="M68.772 44.05H73.6a1.326 1.326 0 0 1 1.322 1.321v2.356" fill="none" stroke="#020064" stroke-linecap="round" stroke-linejoin="round" stroke-width="1"></path>
  <path d="m64.598 44.05 -32.952 0" fill="none" stroke="#020064" stroke-linecap="round" stroke-linejoin="round" stroke-width="1"></path>
  <path d="m24.148 65.904 0 -0.039" fill="none" stroke="#020064" stroke-linecap="round" stroke-linejoin="round" stroke-width="1"></path>
  <path d="m24.148 69.346 0 8.022 9.526 0 36.485 0" fill="none" stroke="#020064" stroke-linecap="round" stroke-linejoin="round" stroke-width="1"></path>
  <path d="m24.148 52.844 0 -1.296" fill="none" stroke="#020064" stroke-linecap="round" stroke-linejoin="round" stroke-width="1"></path>
  <path d="m65.671 48.813 -38.788 0" fill="none" stroke="#020064" stroke-linecap="round" stroke-linejoin="round" stroke-width="1"></path>
  <path d="M28.545 67.854h3.808a1.326 1.326 0 0 1 1.321 1.322v8.192h-9.526v-8.022" fill="none" stroke="#020064" stroke-linecap="round" stroke-linejoin="round" stroke-width="1"></path>
  <path d="M62.5 67.854H49.272a1.318 1.318 0 0 0 -1.32 1.321v8.2h15.867v-8.2a1.321 1.321 0 0 0 -1.319 -1.321Z" fill="none" stroke="#020064" stroke-linecap="round" stroke-linejoin="round" stroke-width="1"></path>
  <path d="m47.952 72.61 15.867 0" fill="none" stroke="#020064" stroke-linecap="round" stroke-linejoin="round" stroke-width="1"></path>
  <path d="m26.896 58.327 -0.013 0" fill="none" stroke="#020064" stroke-linecap="round" stroke-linejoin="round" stroke-width="1"></path>
  <path d="m30.337 58.327 25.545 0 4.763 0 7.185 0 1.61 0 0.026 0" fill="none" stroke="#020064" stroke-linecap="round" stroke-linejoin="round" stroke-width="1"></path>
  <path d="m55.887 48.812 0 9.521" fill="none" stroke="#020064" stroke-linecap="round" stroke-linejoin="round" stroke-width="1"></path>
  <path d="m60.643 48.812 0 9.521" fill="none" stroke="#020064" stroke-linecap="round" stroke-linejoin="round" stroke-width="1"></path>
  <path d="m54 17.9 35.513 13.759" fill="none" stroke="#020064" stroke-linecap="round" stroke-linejoin="round" stroke-width="1"></path>
  <path d="M85.5 42.013c-0.816 -0.314 -0.578 -2.89 0.526 -5.751s2.672 -4.92 3.489 -4.6 0.579 2.891 -0.528 5.754L86.4 44.068a1.582 1.582 0 0 1 -2.048 0.905L50.322 31.79a1.588 1.588 0 0 1 -0.908 -2.05" fill="none" stroke="#020064" stroke-linecap="round" stroke-linejoin="round" stroke-width="1"></path>
  <path d="M89.513 31.659c-0.817 -0.317 -2.377 1.743 -3.489 4.6s-1.342 5.441 -0.524 5.754L49.988 28.257c-0.814 -0.314 -0.581 -2.888 0.524 -5.751S53.185 17.586 54 17.9Z" fill="none" stroke="#020064" stroke-linecap="round" stroke-linejoin="round" stroke-width="1"></path>
  <path d="m34.134 33.648 -5.61 2.246 3.366 3.364 2.244 -5.61z" fill="none" stroke="#020064" stroke-linecap="round" stroke-linejoin="round" stroke-width="1"></path>
  <path d="m34.134 33.648 1.124 -1.125" fill="none" stroke="#020064" stroke-linecap="round" stroke-linejoin="round" stroke-width="1"></path>
  <path d="m11.88 57.4 -1.493 -1.5a1.322 1.322 0 0 1 0 -1.869l2.427 -2.431 3.365 3.364 -2.428 2.436a1.328 1.328 0 0 1 -1.871 0Z" fill="none" stroke="#020064" stroke-linecap="round" stroke-linejoin="round" stroke-width="1"></path>
  <path d="M12.7711562588 51.591576484 28.457977041 35.8630848287l3.3695818757 3.3606545468 -15.6868207822 15.7284916551z" fill="none" stroke="#020064" stroke-linecap="round" stroke-linejoin="round" stroke-width="1"></path>
  <path d="M14.9 69.014a1.307 1.307 0 0 1 -1.013 -0.071 1.327 1.327 0 0 1 -0.667 -0.767l-2.148 -6.536a1.322 1.322 0 0 1 0.83 -1.666l10.977 -3.711a3.178 3.178 0 0 1 4.008 2.026l1.484 4.522a1.581 1.581 0 0 1 -1.012 2Z" fill="none" stroke="#020064" stroke-linecap="round" stroke-linejoin="round" stroke-width="1"></path>
  <path d="m21.371 56.761 2.972 9.039 -9.443 3.212a1.322 1.322 0 0 1 -1.68 -0.841l-2.143 -6.533a1.32 1.32 0 0 1 0.83 -1.664Z" fill="none" stroke="#020064" stroke-linecap="round" stroke-linejoin="round" stroke-width="1"></path>
  <path d="m68.818 47.889 1.333 5.889 3.859 -2.791 -5.192 -3.098z" fill="none" stroke="#020064" stroke-linecap="round" stroke-linejoin="round" stroke-width="1"></path>
  <path d="m68.818 47.889 -0.93 -1.288" fill="none" stroke="#020064" stroke-linecap="round" stroke-linejoin="round" stroke-width="1"></path>
  <path d="m88.765 73.605 -1.715 1.244a1.324 1.324 0 0 1 -1.845 -0.3l-2.017 -2.779 3.854 -2.794 2.016 2.783a1.323 1.323 0 0 1 -0.293 1.846Z" fill="none" stroke="#020064" stroke-linecap="round" stroke-linejoin="round" stroke-width="1"></path>
  <path d="m70.19426 53.816892 3.85722 -2.790532 13.020334 17.99739 -3.85722 2.790532z" fill="none" stroke="#020064" stroke-linecap="round" stroke-linejoin="round" stroke-width="1"></path>
  <path d="m70.159 77.368 0 -18.073" fill="none" stroke="#020064" stroke-linecap="round" stroke-linejoin="round" stroke-width="1"></path>
  <path d="m49.414 29.74 0.574 -1.483" fill="none" stroke="#020064" stroke-linecap="round" stroke-linejoin="round" stroke-width="1"></path>
</svg>